<?xml version="1.0" encoding="UTF-8"?>
<svg width="61px" height="57px" viewBox="0 0 61 57" version="1.1" xmlns="http://www.w3.org/2000/svg" xmlns:xlink="http://www.w3.org/1999/xlink">
    <!-- Generator: Sketch 55.2 (78181) - https://sketchapp.com -->
    <title>编组 18</title>
    <desc>Created with Sketch.</desc>
    <g id="Page-1" stroke="none" stroke-width="1" fill="none" fill-rule="evenodd">
        <g id="首页" transform="translate(-1363.000000, -1050.000000)">
            <g id="编组-40" transform="translate(1254.000000, 1052.000000)">
                <g id="编组-18" transform="translate(111.000000, 0.000000)">
                    <g id="编组-17" transform="translate(3.000000, 9.000000)" fill-rule="nonzero">
                        <path d="M30.8167673,9 C29.1501006,11.6666667 27.3167673,13.5 25.3167673,14.5 C22.3167673,16 22.3167673,19.5 24.8167673,19.5 C27.3167673,19.5 30.3167673,19 32.8167673,19.5 C35.3167673,20 35.3167673,21 37.3167673,21 C38.6501006,21 40.9834339,21 44.3167673,21" id="路径" stroke="#B6DDFF" stroke-width="2"></path>
                        <path d="M43,28.5 C42.3333333,26.1666667 39.8333333,24.8333333 35.5,24.5 C29,24 22.5,25.5 22.5,30.5 C22.5,35.5 26,34.5 28.5,36.5 C31,38.5 30.5,42.5 30.5,42.5" id="形状" stroke="#4E80DC" stroke-width="2"></path>
                        <path d="M18.5,44 C18.5,43.5 20,38.5 18.5,34 C17,29.5 11.2254275,31.8747459 9,27 C6.77457253,22.1252541 12.5,11 7,6" id="路径-7" stroke="#4E80DC" stroke-width="2"></path>
                        <circle id="椭圆形" stroke="#0A4BC1" stroke-width="2.6" cx="22" cy="22" r="22"></circle>
                    </g>
                    <g id="编组-15" transform="translate(28.000000, 0.000000)" fill="#FFFFFF" fill-rule="nonzero">
                        <path d="M6.5,-1 L22.5,-1 C26.6421356,-1 30,2.35786438 30,6.5 L30,16.5 C30,20.6421356 26.6421356,24 22.5,24 L-1,24 L-1,6.5 C-1,2.35786438 2.35786438,-1 6.5,-1 Z" id="矩形" stroke="#FFFFFF" stroke-width="2"></path>
                        <path d="M1.3,21.7 L22.5,21.7 C25.3718807,21.7 27.7,19.3718807 27.7,16.5 L27.7,8.5 C27.7,4.5235498 24.4764502,1.3 20.5,1.3 L8.8,1.3 C4.65786438,1.3 1.3,4.65786438 1.3,8.8 L1.3,21.7 Z" id="矩形" stroke="#021EA2" stroke-width="2.6"></path>
                    </g>
                    <g id="编组-16" transform="translate(0.000000, 6.000000)">
                        <path d="M6,16 L12,16 C15.8659932,16 19,19.1340068 19,23 L19,25 C19,28.8659932 15.8659932,32 12,32 L-1,32 L-1,23 C-1,19.1340068 2.13400675,16 6,16 Z" id="矩形备份" stroke="#FFFFFF" stroke-width="2" fill="#FFFFFF" fill-rule="nonzero" transform="translate(9.000000, 24.000000) scale(-1, 1) translate(-9.000000, -24.000000) "></path>
                        <path d="M1.3,29.7 L12,29.7 C14.5957383,29.7 16.7,27.5957383 16.7,25 L16.7,23 C16.7,20.4042617 14.5957383,18.3 12,18.3 L6,18.3 C3.40426168,18.3 1.3,20.4042617 1.3,23 L1.3,29.7 Z" id="矩形备份" stroke="#021EA2" stroke-width="2.6" fill="#FFFFFF" fill-rule="nonzero" transform="translate(9.000000, 24.000000) scale(-1, 1) translate(-9.000000, -24.000000) "></path>
                        <circle id="椭圆形" fill="#021EA2" cx="6" cy="24" r="1"></circle>
                        <circle id="椭圆形备份" fill="#021EA2" cx="11" cy="24" r="1"></circle>
                        <g id="编组-36" transform="translate(35.000000, 0.000000)" fill-rule="nonzero">
                            <g id="编组-35" transform="translate(0.000000, 0.846154)">
                                <ellipse id="椭圆形" stroke="#4E80DC" stroke-width="1.76470588" cx="5.20384652" cy="2.11538462" rx="2.20588235" ry="2.11538462"></ellipse>
                                <path d="M10.5882353,10.1538462 C10.1688817,7.78402053 7.90078895,5.92307692 5.29041429,5.92307692 C2.70050065,5.92307692 0.443328201,7.80901079 0,10.1538462 L1.76470588,10.1538462 C2.04654806,8.66313679 3.36426724,7.61538462 5.29041429,7.61538462 C7.23082943,7.61538462 8.80958854,8.22733046 9.07563025,9.73076923 L10.5882353,10.1538462 Z" id="形状" fill="#4E80DC"></path>
                            </g>
                            <g id="编组-35备份" transform="translate(4.411765, 0.000000)">
                                <ellipse id="椭圆形" stroke="#FFFFFF" stroke-width="1.76470588" cx="5.51470588" cy="2.75" rx="2.86764706" ry="2.75"></ellipse>
                                <ellipse id="椭圆形" stroke="#021EA2" stroke-width="1.76470588" fill="#FFFFFF" cx="5.73529412" cy="2.96153846" rx="2.20588235" ry="2.11538462"></ellipse>
                                <path d="M10.5882353,11 C10.1925068,8.60394641 7.97100728,6.76923077 5.28979706,6.76923077 C2.62748886,6.76923077 0.418432421,8.57816882 0,10.949409" id="形状" stroke="#FFFFFF" stroke-width="1.76470588" fill="#FFFFFF"></path>
                                <path d="M10.5882353,11 C10.174297,8.63116871 7.81738529,6.76923077 5.23374206,6.76923077 C2.67032496,6.76923077 0.437624618,8.6560344 0,11 L1.76470588,11 C2.04318768,9.50842087 3.33754509,8.46153846 5.23374206,8.46153846 C7.14400795,8.46153846 8.56063922,9.49556689 8.82352941,11 L10.5882353,11 Z" id="形状" fill="#021EA2"></path>
                            </g>
                        </g>
                    </g>
                </g>
            </g>
        </g>
    </g>
</svg>