<?xml version="1.0" encoding="UTF-8"?>
<svg width="20px" height="25px" viewBox="0 0 20 25" version="1.1" xmlns="http://www.w3.org/2000/svg" xmlns:xlink="http://www.w3.org/1999/xlink">
    <!-- Generator: Sketch 51.3 (57544) - http://www.bohemiancoding.com/sketch -->
    <title>Shape</title>
    <desc>Created with Sketch.</desc>
    <defs></defs>
    <g id="首页" stroke="none" stroke-width="1" fill="none" fill-rule="evenodd">
        <g id="内容1200-" transform="translate(-435.000000, -1635.000000)" fill="#357CE1">
            <g id="Group-90" transform="translate(0.000000, 1409.000000)">
                <g id="Group-60-Copy" transform="translate(196.000000, 190.000000)">
                    <g id="Group-51" transform="translate(210.000000, 0.000000)">
                        <g id="Group-45" transform="translate(15.000000, 25.000000)">
                            <path d="M26.8635424,16.2906952 L26.8635424,15.2362521 L25.861506,15.2362521 L25.861506,16.2906952 L26.8635424,16.2906952 Z M21.7800399,16.2906952 L21.7800399,15.2362521 L20.7780034,15.2362521 L20.7780034,16.2906952 L21.7800399,16.2906952 Z M27.9266778,13.2295693 C29.6130318,14.4439004 30.4562088,16.0898271 30.4562088,18.1673493 L18.2362521,18.1673493 C18.2362521,16.0577813 19.0638148,14.4118546 20.71894,13.2295693 L19.3818731,11.886714 C19.1272906,11.6310295 19.1272906,11.3913678 19.3818731,11.1677291 C19.6364555,10.9440903 19.8750841,10.9440903 20.0977589,11.1677291 L21.6252535,12.7018364 C22.4528161,12.2545589 23.3598084,12.0309201 24.3462305,12.0309201 C25.3007449,12.0309201 26.1917834,12.2545589 27.019346,12.7018364 L28.5468406,11.1677291 C28.801423,10.9440903 29.0400516,10.9440903 29.2627264,11.1677291 C29.4854012,11.3913678 29.4854012,11.6310295 29.2627264,11.886714 L27.9266778,13.2295693 Z M32.4725031,19.4725066 C32.885945,19.4725066 33.2440576,19.6242127 33.546841,19.9276251 C33.8496244,20.2310374 34.0006766,20.5907003 33.9999977,21.0066139 L33.9999977,28.1494174 C33.9999977,28.5966949 33.8489455,28.9641988 33.546841,29.2519292 C33.2447365,29.5396595 32.8866239,29.6835247 32.4725031,29.6835247 C32.0583824,29.6835247 31.7002698,29.5396595 31.3981653,29.2519292 C31.0960608,28.9641988 30.9450085,28.5966949 30.9450085,28.1494174 L30.9450085,21.0066139 C30.9450085,20.5913821 31.0960608,20.2317192 31.3981653,19.9276251 C31.7002698,19.6235309 32.0583824,19.4718247 32.4725031,19.4725066 Z M15.5274946,19.4725066 C15.9409365,19.4725066 16.2990491,19.6242127 16.6018325,19.9276251 C16.9046158,20.2310374 17.0556681,20.5907003 17.0549892,21.0066139 L17.0549892,28.1494174 C17.0549892,28.5966949 16.9039369,28.9641988 16.6018325,29.2519292 C16.299728,29.5396595 15.9416153,29.6835247 15.5274946,29.6835247 C15.1133738,29.6835247 14.7552612,29.5396595 14.4531567,29.2519292 C14.1510522,28.9641988 14,28.5966949 14,28.1494174 L14,21.0066139 C14,20.5913821 14.1510522,20.2317192 14.4531567,19.9276251 C14.7552612,19.6235309 15.1133738,19.4718247 15.5274946,19.4725066 Z M18.2362521,29.6835224 L18.2362521,19.4725043 L30.4562088,19.4725043 L30.4562088,29.6835224 C30.4562088,29.9712528 30.3608253,30.2109144 30.1700582,30.4025074 C29.9792911,30.5941003 29.7406625,30.6898968 29.4541724,30.6898968 L28.4042744,30.6898968 L28.4042744,34.2858443 C28.4042744,34.7331218 28.2532222,35.1006257 27.9511177,35.3883561 C27.6490132,35.6760864 27.2909006,35.8199516 26.8767798,35.8199516 C26.4626591,35.8199516 26.1045465,35.6760864 25.802442,35.3883561 C25.5003375,35.1006257 25.3492852,34.7331218 25.3492852,34.2858443 L25.3492852,30.6898968 L23.344194,30.6898968 L23.344194,34.2858443 C23.344194,34.7331218 23.1931418,35.1006257 22.8910373,35.3883561 C22.5889328,35.6760864 22.2308202,35.8199516 21.8166994,35.8199516 C21.4025787,35.8199516 21.0444661,35.6760864 20.7423616,35.3883561 C20.4402571,35.1006257 20.2892048,34.7331218 20.2892048,34.2858443 L20.2892048,30.6898968 L19.2393069,30.6898968 C18.9528168,30.6898968 18.7141882,30.5941003 18.5234211,30.4025074 C18.332654,30.2109144 18.2372704,29.9712528 18.2372704,29.6835224 L18.2362521,29.6835224 Z" id="Shape"></path>
                        </g>
                    </g>
                </g>
            </g>
        </g>
    </g>
</svg>