<?xml version="1.0" encoding="UTF-8"?>
<svg width="20px" height="25px" viewBox="0 0 20 25" version="1.1" xmlns="http://www.w3.org/2000/svg" xmlns:xlink="http://www.w3.org/1999/xlink">
    <!-- Generator: Sketch 51.3 (57544) - http://www.bohemiancoding.com/sketch -->
    <title>Shape</title>
    <desc>Created with Sketch.</desc>
    <defs></defs>
    <g id="首页" stroke="none" stroke-width="1" fill="none" fill-rule="evenodd">
        <g id="内容1200-" transform="translate(-225.000000, -1637.000000)" fill="#357CE1">
            <g id="Group-90" transform="translate(0.000000, 1409.000000)">
                <g id="Group-60-Copy" transform="translate(196.000000, 190.000000)">
                    <g id="Group-50">
                        <g id="Group-44" transform="translate(15.000000, 27.000000)">
                            <path d="M27.0839206,14.7256371 C28.449494,13.0338777 28.1343617,11.188322 28.0293176,11.0345257 C27.8717514,10.8807294 25.8233913,11.188322 24.4052958,13.0338777 C23.1447665,14.7256371 23.1447665,16.5711928 23.3023327,16.7249891 C23.4598988,16.8787854 25.508259,16.7249891 27.0839206,14.7256371 Z M30.4489343,23.9350866 C30.2967458,21.4717001 32.5795737,19.9320835 33.0361393,19.6241602 L33.0361393,19.4701986 C33.0361393,19.4701986 31.0576885,17.0068121 28.1661064,17.1607737 C26.3398441,17.3147354 25.4267129,18.2385053 24.2092047,18.2385053 C22.6873194,18.2385053 21.3176227,17.1607737 19.6435489,17.1607737 C18.2738522,17.1607737 14.3169505,18.392467 14.0125734,23.6271633 C13.7589259,28.8618596 17.4114505,33.737312 18.7811473,34.661082 C20.150844,35.5848519 21.0639752,35.2769286 22.5858605,34.5071203 C23.3468031,34.0452353 25.7818195,33.8912737 27.1515163,34.8150436 C28.8255901,35.4308903 31.2606065,34.9690053 34,28.8105391 C33.6448934,28.8618596 30.6011229,28.0920513 30.4489343,23.9350866 Z" id="Shape"></path>
                        </g>
                    </g>
                </g>
            </g>
        </g>
    </g>
</svg>